<?xml version="1.0" encoding="UTF-8" standalone="no"?>
<!DOCTYPE svg PUBLIC "-//W3C//DTD SVG 1.1//EN" "http://www.w3.org/Graphics/SVG/1.1/DTD/svg11.dtd">
<svg width="291.00" height="357.00" viewBox="0.00 0.00 291.00 357.00" xmlns="http://www.w3.org/2000/svg" xmlns:xlink="http://www.w3.org/1999/xlink">
  <g stroke-linecap="round" transform="translate(-557.00, -1274.00)" id="svg">
    <path d="M680.62,1542.84 C674.68,1541.75 660.21,1535.19 652.90,1531.83 C647.12,1529.03 637.01,1522.44 632.50,1518.86 C628.02,1515.30 618.37,1505.88 613.87,1500.25 C609.20,1494.35 602.87,1483.23 600.32,1476.87 C598.43,1472.11 595.14,1460.90 593.92,1455.22 C592.65,1449.20 591.29,1437.05 591.26,1431.00 C591.24,1425.25 592.32,1412.64 593.45,1405.53 C594.72,1398.16 597.23,1387.45 598.99,1381.94 C600.72,1376.68 605.52,1364.50 608.46,1358.86 C610.26,1355.44 618.99,1341.21 624.32,1334.17 C634.08,1321.59 641.40,1316.35 641.82,1316.26 C642.45,1315.40 642.85,1314.98 643.02,1315.00 C643.22,1315.02 645.14,1320.85 647.54,1326.12 C654.96,1341.93 665.59,1364.27 668.79,1370.80 C666.86,1373.84 658.94,1387.88 656.29,1393.35 C652.47,1401.56 648.12,1414.89 647.20,1419.52 C646.15,1424.89 645.99,1437.69 646.78,1443.31 C647.57,1448.81 650.85,1458.96 653.41,1463.66 C655.63,1467.69 658.59,1472.13 660.94,1474.90 C665.70,1480.43 675.98,1487.42 680.98,1489.81 C683.80,1491.12 688.02,1491.86 689.07,1492.05 C689.70,1492.16 690.46,1492.48 690.45,1492.48" fill="none" stroke="rgb(0, 0, 0)" stroke-width="10.00" stroke-opacity="1.00" stroke-linejoin="round"/>
    <path d="M680.34,1543.03 C680.34,1543.02 680.33,1543.02 680.33,1543.03 C680.17,1545.33 680.36,1562.43 680.45,1568.51 C680.45,1568.51 626.28,1600.10 626.28,1600.10 C628.55,1600.88 666.78,1600.68 682.95,1600.52 C716.36,1599.77 758.78,1598.83 767.79,1598.63 C761.05,1595.57 743.21,1587.25 738.92,1584.91 C737.63,1584.20 707.80,1565.53 707.41,1564.60 C707.23,1564.14 707.16,1552.49 707.10,1549.90 C707.01,1546.86 706.82,1541.49 707.75,1540.53" fill="none" stroke="rgb(0, 0, 0)" stroke-width="10.00" stroke-opacity="1.00" stroke-linejoin="round"/>
    <path d="M684.50,1490.40 C687.06,1491.84 691.14,1493.22 694.80,1493.77 C699.52,1494.42 712.25,1493.89 720.24,1492.20 C725.87,1490.95 737.49,1486.41 742.04,1483.78 C752.54,1477.65 759.60,1467.67 760.13,1466.90 C760.25,1466.71 760.39,1466.51 760.56,1466.28" fill="none" stroke="rgb(0, 0, 0)" stroke-width="10.00" stroke-opacity="1.00" stroke-linejoin="round"/>
    <path d="M708.98,1418.12 C708.98,1418.12 708.31,1457.66 708.31,1457.66 C712.49,1457.51 756.20,1458.22 759.51,1458.85 C760.22,1459.01 760.34,1461.16 759.21,1465.30 C758.48,1467.91 758.07,1468.96 757.60,1469.49 C757.59,1469.50 757.56,1469.54 757.57,1469.54" fill="none" stroke="rgb(0, 0, 0)" stroke-width="10.00" stroke-opacity="1.00" stroke-linejoin="round"/>
    <path d="M710.14,1418.21 C714.50,1418.88 750.91,1419.06 767.98,1419.46 C783.01,1420.03 800.79,1420.65 800.81,1420.67 C801.68,1421.68 802.87,1434.74 802.69,1440.23 C802.29,1451.34 796.87,1476.47 794.76,1482.25 C792.33,1488.82 784.11,1501.60 778.93,1507.43 C774.08,1512.85 764.14,1521.01 758.87,1524.11 C754.38,1526.73 741.38,1532.49 736.03,1534.29 C721.66,1538.96 711.59,1539.65 709.00,1539.67 C707.17,1540.32 706.22,1540.66 706.13,1540.70 C705.76,1540.88 707.33,1540.37 707.37,1540.78 C707.46,1541.79 705.68,1543.94 706.13,1544.14" fill="none" stroke="rgb(0, 0, 0)" stroke-width="10.00" stroke-opacity="1.00" stroke-linejoin="round"/>
    <path d="M653.94,1336.24 C653.94,1336.24 653.29,1338.47 653.29,1338.47 C653.01,1334.19 655.43,1321.02 657.58,1316.28 C658.89,1313.46 662.38,1308.56 664.56,1306.57 C666.75,1304.61 671.68,1301.83 674.27,1301.09 C676.78,1300.41 681.90,1300.23 684.53,1300.64 C687.03,1301.06 692.00,1302.71 694.35,1303.85 C698.89,1306.10 706.50,1312.77 709.49,1316.98 C712.28,1320.95 716.28,1329.49 717.49,1333.79 C717.98,1335.55 718.91,1340.60 719.03,1343.79 C719.13,1346.98 717.75,1354.76 716.69,1357.47 C715.59,1360.20 712.43,1365.32 710.53,1367.50 C708.82,1369.42 705.46,1372.39 703.32,1373.87 C701.37,1375.19 696.08,1377.44 692.70,1378.14 C690.56,1378.57 687.30,1378.85 686.56,1378.70 C686.55,1378.69 680.02,1403.94 680.02,1403.91 C691.79,1411.85 704.93,1420.67 706.31,1421.55 C706.64,1421.77 706.99,1422.01 707.35,1422.26" fill="none" stroke="rgb(0, 0, 0)" stroke-width="10.00" stroke-opacity="1.00" stroke-linejoin="round"/>
    <path d="M794.75,1487.32 C794.75,1487.32 812.67,1503.61 812.67,1503.61 C812.67,1503.61 745.17,1566.33 745.17,1566.33 C754.37,1579.40 767.68,1598.36 767.78,1598.43 C767.85,1598.48 768.06,1598.56 768.41,1598.67" fill="none" stroke="rgb(0, 0, 0)" stroke-width="10.00" stroke-opacity="1.00" stroke-linejoin="round"/>
    <path d="M642.09,1324.42 C641.84,1324.61 641.61,1324.82 641.42,1325.05 C636.85,1330.82 634.39,1334.55 627.24,1346.14 C621.44,1355.34 617.54,1362.68 614.94,1370.12 C613.35,1374.67 610.06,1380.11 609.06,1381.80 C605.46,1387.86 601.32,1400.04 600.06,1407.82 C599.06,1414.06 598.04,1427.15 598.38,1433.53 C598.74,1439.31 599.43,1450.56 600.22,1455.38 C601.45,1462.68 606.19,1474.55 609.38,1479.92 C612.96,1485.87 618.95,1492.77 624.95,1500.13 C629.00,1505.04 636.91,1513.01 640.40,1515.07 C645.34,1517.94 659.32,1522.70 660.42,1523.15 C666.24,1525.57 676.93,1533.23 679.01,1533.97 C679.33,1534.08 680.14,1534.33 681.44,1534.72 C681.44,1534.72 681.72,1535.28 681.72,1535.28" fill="none" stroke="rgb(0, 0, 0)" stroke-width="18.10" stroke-opacity="1.00" stroke-linejoin="round"/>
    <path d="M703.19,1528.82 C702.43,1529.09 702.00,1529.25 701.89,1529.31 C701.26,1529.66 704.70,1532.49 708.03,1532.75 C709.38,1532.83 712.11,1532.51 713.24,1532.12 C714.27,1531.75 722.24,1528.40 727.95,1526.54 C740.84,1522.40 753.08,1517.43 756.54,1516.05 C760.08,1514.57 764.28,1511.88 766.76,1509.82 C771.73,1505.64 779.16,1497.10 782.11,1491.65 C784.57,1487.06 787.31,1479.11 790.09,1469.41 C791.20,1465.43 793.57,1456.85 793.91,1454.53 C794.08,1453.28 794.71,1431.30 794.49,1429.16 C794.39,1428.28 794.09,1427.84 793.58,1427.42 C786.93,1428.77 783.79,1429.26 779.89,1429.29 C769.21,1429.32 733.76,1426.42 729.36,1426.25 C725.87,1426.16 718.64,1426.00 718.06,1426.02 C717.89,1426.03 717.70,1426.05 717.49,1426.09" fill="none" stroke="rgb(0, 0, 0)" stroke-width="18.10" stroke-opacity="1.00" stroke-linejoin="round"/>
    <path d="M715.52,1428.99 C715.51,1429.62 715.51,1430.08 715.52,1430.35 C716.05,1438.45 715.07,1448.54 715.04,1449.31 C715.04,1449.31 765.74,1453.29 765.74,1453.29 C766.58,1454.72 768.22,1468.73 767.80,1471.24 C767.74,1471.58 767.60,1472.08 767.37,1472.75" fill="none" stroke="rgb(0, 0, 0)" stroke-width="18.10" stroke-opacity="1.00" stroke-linejoin="round"/>
    <path d="M642.23,1329.68 C643.28,1335.13 647.36,1347.17 650.57,1353.52 C654.63,1361.37 661.36,1370.14 661.48,1370.37 C661.49,1370.39 661.55,1370.54 661.66,1370.82" fill="none" stroke="rgb(0, 0, 0)" stroke-width="18.10" stroke-opacity="1.00" stroke-linejoin="round"/>
    <path d="M661.92,1371.09 C661.85,1371.30 661.20,1372.36 660.01,1374.15 C655.40,1381.13 651.51,1389.06 647.73,1398.64 C645.02,1405.72 641.37,1417.54 640.08,1424.03 C638.89,1430.08 638.46,1440.79 639.31,1446.09 C639.72,1448.59 641.16,1453.21 641.98,1454.99 C642.80,1456.74 653.28,1474.81 656.26,1478.09 C658.54,1480.55 669.18,1490.14 674.82,1493.70 C678.33,1495.91 683.46,1498.39 685.71,1499.07 C688.13,1499.77 703.17,1502.04 708.28,1501.98 C710.35,1501.93 715.12,1500.78 718.83,1500.20 C722.26,1499.65 730.66,1495.62 730.70,1495.61 C732.85,1494.58 738.68,1492.97 741.30,1492.24 C743.49,1491.61 748.41,1488.03 748.92,1487.66 C753.96,1484.46 762.84,1476.77 765.49,1473.06 C766.00,1472.34 767.25,1470.40 767.68,1469.84" fill="none" stroke="rgb(0, 0, 0)" stroke-width="18.10" stroke-opacity="1.00" stroke-linejoin="round"/>
    <path d="M687.23,1536.58 C688.12,1547.47 688.42,1568.62 688.44,1570.34 C688.45,1570.66 688.45,1570.85 688.44,1570.92" fill="none" stroke="rgb(0, 0, 0)" stroke-width="18.10" stroke-opacity="1.00" stroke-linejoin="round"/>
    <path d="M645.10,1596.20 C646.26,1595.66 647.22,1595.18 648.19,1594.58 C659.64,1587.36 683.70,1572.74 684.55,1572.34 C684.57,1572.33 684.58,1572.41 684.56,1572.43" fill="none" stroke="rgb(0, 0, 0)" stroke-width="15.00" stroke-opacity="1.00" stroke-linejoin="round"/>
    <path d="M752.99,1593.71 C751.52,1593.82 745.89,1593.30 743.30,1593.05 C731.82,1592.01 697.84,1590.70 681.35,1590.71 C672.43,1590.86 657.73,1591.11 657.58,1591.12 C656.32,1591.19 655.40,1591.42 654.93,1591.69" fill="none" stroke="rgb(0, 0, 0)" stroke-width="15.00" stroke-opacity="1.00" stroke-linejoin="round"/>
    <path d="M737.54,1590.93 C737.54,1590.93 697.19,1570.31 697.19,1570.31 C697.23,1563.03 697.41,1546.38 697.58,1543.90 C697.89,1540.05 699.00,1536.06 698.99,1536.08 C698.91,1539.11 700.37,1576.32 700.62,1577.26 C701.05,1578.74 704.21,1580.76 705.48,1581.50 C705.48,1581.50 682.11,1580.13 682.11,1580.13 C682.11,1580.13 698.48,1576.46 698.48,1576.46 C698.48,1576.46 697.85,1577.51 697.85,1577.51" fill="none" stroke="rgb(0, 0, 0)" stroke-width="15.00" stroke-opacity="1.00" stroke-linejoin="round"/>
    <path d="M637.90,1352.82 C638.41,1354.33 644.94,1370.25 646.08,1375.17 C646.64,1377.67 646.50,1378.38 646.22,1378.74 C643.88,1378.95 639.93,1378.16 637.88,1376.84 C635.72,1375.41 632.37,1371.67 631.58,1370.13 C632.35,1371.25 632.78,1376.68 632.42,1380.42 C632.05,1384.06 630.92,1390.72 629.99,1393.36 C628.96,1396.19 626.69,1398.90 625.23,1399.13 C624.01,1398.63 622.84,1396.00 622.36,1393.32 C621.83,1390.26 621.72,1385.58 622.16,1382.75 C622.57,1380.26 623.90,1377.69 625.28,1377.24 C626.83,1377.59 629.08,1380.82 629.80,1383.99 C630.77,1388.49 630.77,1399.85 630.15,1404.82 C629.48,1409.89 626.61,1418.98 624.50,1421.26 C623.76,1422.02 622.31,1422.34 621.72,1421.91 C620.62,1421.01 619.48,1415.50 619.36,1411.85 C619.15,1403.49 621.28,1401.19 621.93,1400.98 C623.06,1401.90 623.99,1406.51 624.16,1409.12 C624.50,1415.17 624.15,1430.88 623.17,1436.93 C622.68,1439.79 621.33,1443.35 620.08,1443.93 C618.80,1443.47 617.20,1439.94 616.45,1436.83 C613.03,1422.29 615.03,1415.67 615.61,1414.68 C615.61,1414.68 616.60,1414.46 616.60,1414.46 C618.06,1415.69 619.93,1420.70 620.72,1424.22 C622.98,1434.57 624.99,1457.64 624.84,1463.96 C624.75,1467.37 623.69,1473.61 622.69,1474.58 C622.49,1474.76 622.07,1474.91 621.45,1475.01 C619.69,1473.92 617.40,1469.15 616.44,1466.10 C614.97,1461.28 613.15,1451.08 613.77,1447.54 C614.03,1446.08 614.89,1445.17 615.94,1444.77 C617.93,1445.39 620.21,1448.54 621.96,1451.65 C623.35,1454.23 629.32,1469.39 631.14,1475.65 C632.15,1479.16 633.19,1485.69 633.12,1487.10 C633.01,1488.83 632.59,1489.92 631.91,1490.50 C630.42,1490.32 627.77,1487.27 626.05,1484.61 C624.67,1482.44 621.81,1477.28 621.37,1475.37 C621.10,1474.11 621.46,1473.04 622.15,1472.27 C624.14,1471.96 628.30,1474.61 630.26,1476.43 C634.18,1480.15 644.81,1492.17 648.76,1497.57 C653.59,1504.25 654.44,1507.56 654.40,1508.24 C652.47,1507.41 649.22,1503.65 647.29,1501.32 C642.12,1494.96 641.58,1492.39 641.66,1491.71 C643.74,1491.91 647.37,1494.47 649.31,1495.84 C651.94,1497.68 669.35,1511.48 672.06,1513.47 C677.44,1517.40 689.49,1523.89 694.45,1524.77 C699.35,1525.59 705.80,1524.28 706.08,1523.84 C706.02,1523.13 702.57,1521.61 698.17,1520.52 C688.68,1518.18 685.76,1518.27 685.02,1518.42 C686.28,1519.97 700.76,1520.77 705.37,1520.23 C716.15,1518.93 738.78,1510.02 739.77,1509.51 C745.45,1504.69 757.61,1494.34 760.15,1491.51 C763.89,1487.05 770.52,1479.22 772.40,1475.11 C775.82,1467.49 778.65,1447.12 779.46,1441.86 C779.60,1440.67 778.50,1439.45 776.74,1439.24 C776.24,1439.18 758.29,1437.88 752.02,1436.44 C749.81,1435.93 743.76,1434.17 741.40,1433.72 C739.42,1433.36 728.05,1433.69 725.40,1433.71" fill="none" stroke="rgb(0, 0, 0)" stroke-width="29.50" stroke-opacity="1.00" stroke-linejoin="round"/>
  </g>
</svg>
